<svg width="18" height="18" viewBox="0 0 18 18" fill="none" xmlns="http://www.w3.org/2000/svg">
    <path
        d="M9 18C13.9702 18 18 13.9702 18 9C18 4.02977 13.9702 0 9 0C4.02978 0 0 4.02977 0 9C0 13.9702 4.02978 18 9 18V18Z"
        fill="#008600" />
    <path
        d="M4.46017 9.89334C4.46017 8.35121 5.21017 7.55233 6.40511 7.55233C7.30511 7.55233 7.85286 7.89784 8.04837 7.99896C8.20005 7.84727 8.30118 7.6029 8.30118 7.35009C8.30118 6.90346 7.80399 6.45009 6.35623 6.45009C4.66241 6.45009 3.21466 7.64671 3.21466 9.8866C3.21466 12.1265 4.51241 13.3231 6.20455 13.3231C7.24949 13.3231 8.04837 12.9776 8.30118 12.8765V11.6293C8.04837 11.8315 7.20567 12.2276 6.4068 12.2276C5.31129 12.2276 4.46185 11.427 4.46185 9.88491V9.89166L4.46017 9.89334ZM12.7388 9.84278C13.4888 8.94278 14.1866 7.89784 14.6838 6.54953L13.5883 6.15346C12.8888 8.04784 11.8439 9.34559 10.5984 10.3905V3.86301H9.40174V13.1866H10.5984V11.7894C11.045 11.4439 11.4478 11.09 11.8961 10.6939L12.9916 12.5883C13.2444 13.0349 13.6405 13.2877 14.1883 13.2877C14.4832 13.2877 14.6854 13.1866 14.736 13.136L12.7405 9.84278H12.7388Z"
        fill="white" />
</svg>