<svg width="95" height="20" viewBox="0 0 95 20" fill="none" xmlns="http://www.w3.org/2000/svg">
<g clip-path="url(#clip0_71_36637)">
<path d="M48.3581 11.5234C48.3581 16.2761 52.1709 19.7497 57.0134 19.7497C61.8559 19.7497 65.6716 16.2814 65.6716 11.5234V0.614258H60.9801V10.9635C60.9801 13.5269 59.2635 15.2465 57.0003 15.2465C54.7369 15.2465 53.0202 13.5269 53.0202 10.9635V0.614258H48.334L48.3581 11.5234Z" fill="#236CFF"/>
<path d="M78.2063 4.99278H83.8023V19.3703H88.4909V4.99278H94.0843V0.614258H78.2063V4.99278Z" fill="#236CFF"/>
<path d="M75.1759 0.614258H70.4874V19.3703H75.1759V0.614258Z" fill="#236CFF"/>
<path d="M29.4156 4.99278H35.0113V19.3703H39.7001V4.99278H45.2935V0.614258H29.4156V4.99278Z" fill="#236CFF"/>
<path d="M4.81832 0.614258H0.129761V19.3703H4.81832V9.99225V0.614258Z" fill="#236CFF"/>
<path d="M26.9477 8.46117C26.9477 3.7085 23.1322 0.234863 18.2897 0.234863C13.4472 0.234863 9.63165 3.70317 9.63165 8.46117V19.3703H14.3202V9.02109C14.3202 6.45768 16.0396 4.7381 18.3003 4.7381C20.561 4.7381 22.2804 6.45768 22.2804 9.02109V19.3703H26.9691L26.9477 8.46117Z" fill="#236CFF"/>
</g>
<defs>
<clipPath id="clip0_71_36637">
<rect width="94.332" height="20" fill="white"/>
</clipPath>
</defs>
</svg>
